# xmcd CD database file
#
# Track frame offsets:
#	150
#	18003
#	31641
#	43085
#	63927
#	76071
#	89022
#	108136
#	119079
#	133660
#	148053
#	177483
#	191429
#	203596
#
# Disc length: 2971 seconds
#
# Revision: 0
# Processed by: cddbd v1.5.1PL0 Copyright (c) Steve Scherf et al.
# Submitted via: CDex 1.51
#
DISCID=b70b990e
DTITLE=Duke Ellington and his Orchestra and Rosemary Clooney - Blue Rose
DYEAR=1900
DGENRE=Jazz
TTITLE0=Hey Baby
TTITLE1=Sophisticated Lady
TTITLE2=Me and You
TTITLE3=Passion Flower
TTITLE4=I let a Song go out of my Heart
TTITLE5=I don´t mean a Thing
TTITLE6=Grievin´
TTITLE7=Blue Rose
TTITLE8=I´m checking out
TTITLE9=I got it bad
TTITLE10=Mood Indigo
TTITLE11=If you were in my place
TTITLE12=Just a sittin´ and a rockin´
TTITLE13=In a sentimental mood
EXTD=
EXTT0=
EXTT1=
EXTT2=
EXTT3=
EXTT4=
EXTT5=
EXTT6=
EXTT7=
EXTT8=
EXTT9=
EXTT10=
EXTT11=
EXTT12=
EXTT13=
PLAYORDER=
